<svg width="38" height="34" viewBox="0 0 38 34" fill="none" xmlns="http://www.w3.org/2000/svg">
<path d="M24.6682 17C24.6682 19.805 22.1349 22.0717 18.9999 22.0717C15.8649 22.0717 13.3315 19.805 13.3315 17C13.3315 14.195 15.8649 11.9283 18.9999 11.9283C22.1349 11.9283 24.6682 14.195 24.6682 17Z" stroke="#212851" stroke-width="1.5" stroke-linecap="round" stroke-linejoin="round"/>
<path d="M19.0002 28.7158C24.5894 28.7158 29.7986 25.7692 33.4244 20.6692C34.8494 18.6717 34.8494 15.3142 33.4244 13.3167C29.7986 8.21665 24.5894 5.26999 19.0002 5.26999C13.4111 5.26999 8.20191 8.21665 4.57607 13.3167C3.15107 15.3142 3.15107 18.6717 4.57607 20.6692C8.20191 25.7692 13.4111 28.7158 19.0002 28.7158Z" stroke="#212851" stroke-width="1.5" stroke-linecap="round" stroke-linejoin="round"/>
</svg>
